<?xml version="1.0" encoding="UTF-8" standalone="no"?>
<!-- Created with Inkscape (http://www.inkscape.org/) -->

<svg
   xmlns:dc="http://purl.org/dc/elements/1.1/"
   xmlns:cc="http://creativecommons.org/ns#"
   xmlns:rdf="http://www.w3.org/1999/02/22-rdf-syntax-ns#"
   xmlns:svg="http://www.w3.org/2000/svg"
   xmlns="http://www.w3.org/2000/svg"
   version="1.1"
   width="48"
   height="48"
   id="svg2">
  <title
     id="title3010">AssaultCube</title>
  <metadata
     id="metadata336">
    <rdf:RDF>
      <cc:Work
         rdf:about="">
        <dc:format>image/svg+xml</dc:format>
        <dc:type
           rdf:resource="http://purl.org/dc/dcmitype/StillImage" />
        <dc:title>AssaultCube</dc:title>
      </cc:Work>
    </rdf:RDF>
  </metadata>
  <defs
     id="defs334" />
  <path
     d="M 2,-28.947"
     id="path262" />
  <path
     d="m 41.512972,13.66349 c 0.146371,0.825915 -0.02583,1.375445 -0.866385,1.33226 -0.18942,-0.241836 -0.36485,-0.49231 -0.384222,-0.929559 0.266911,-0.265588 0.69526,-0.390825 1.250607,-0.402701 z"
     id="path16"
     style="fill:#9b0101" />
  <path
     d="M 19.053724,2.0000007 C 19.597853,4.200817 16.19616,4.0731379 17.424612,6.265066 16.466504,7.9940337 14.2307,4.7970615 12.593674,5.9935955 c -0.9216,1.6483251 -1.160274,3.1133311 0.261529,4.4049075 -0.743809,0.526467 -2.9821425,0.773217 -3.9434815,2.04173 -0.9717174,1.857597 2.2739265,4.249922 -0.3378271,5.811223 -0.8755132,3.193165 -4.2853072,-1.642649 -5.4792137,1.423827 -0.810401,3.358965 3.8072452,0.608869 5.2597424,1.777972 -0.029906,1.854615 -3.8474876,1.96456 -3.9486972,3.650632 -0.5838153,2.264535 1.5207154,3.1129 3.3156255,3.599598 1.0232509,-0.234968 1.4747959,1.624756 0.2448759,0.826038 -3.4702155,-0.441043 -1.2834997,4.906788 0.9184945,2.782383 0.685025,-1.366353 1.3499862,2.529472 0.8568872,3.491956 -0.6471435,1.620374 3.813866,1.979564 2.228249,3.969635 -0.350966,2.468051 2.20213,1.258154 3.104644,0.217256 2.470805,0.911189 -1.971568,2.527749 -1.48634,4.389612 -0.367618,2.14609 2.085046,2.681692 3.713749,2.539326 1.661076,0.370994 1.255314,-0.587239 1.300499,-1.970835 -0.252463,-1.846589 -1.839507,-4.188523 1.053504,-4.258249 1.916687,-1.476456 3.24704,0.711908 5.344047,0.543664 2.767656,1.087315 2.78538,-3.292739 5.545647,-2.604037 1.444523,1.278725 2.090334,-3.547281 3.038808,-1.783932 0.08531,1.668809 1.979155,0.436235 3.043929,1.361724 1.995083,-0.170033 2.490733,-3.420309 0.711269,-4.556172 -1.287257,-1.550603 0.468837,-2.380596 1.825782,-1.41275 2.635123,1.179053 3.862891,-2.62605 1.789558,-4.033133 -2.04666,-1.13101 1.054039,-0.09286 1.02047,-1.551298 -1.615692,-0.474618 0.239797,-2.629572 -0.962767,-3.707447 -0.194632,-2.646531 -0.6945,-5.121759 -0.698068,-7.681329 -0.823182,-1.347063 2.8058,-3.940249 -0.0084,-4.607056 C 36.906967,10.645164 39.174651,7.3443996 39.351854,5.6442621 38.162712,3.6197917 36.526033,8.0411817 35.223603,5.3888474 33.97874,4.4887401 32.539864,4.9423483 31.939699,3.544969 30.504159,3.6624109 28.788947,4.8624809 28.083082,2.7779595 26.213322,1.8540862 24.434047,4.6115503 23.003219,4.1957784 22.089426,2.8521025 20.164166,3.0776488 19.053724,2.0000007 z"
     id="path28"
     style="fill:#9b0101" />
  <path
     d="m 29.156493,24.060303 c 0.991231,0.248314 -0.306732,0.873418 -0.234623,1.293394 -0.754455,-0.03887 0.30458,-0.872339 0.234623,-1.293394 z"
     id="path200"
     style="fill:#9b0101" />
  <polygon
     points="450.12,179.294 450.858,190.419 461.441,182.747 460.705,171.616 "
     transform="matrix(1.0762546,0,0,1.0796275,-459.52775,-170.8049)"
     id="polygon280"
     style="fill:none" />
  <path
     d="m 32.997571,17.851365 -0.01291,0.03131 0.01291,-0.03131 z"
     id="path288"
     style="fill:#202020" />
  <path
     d="m 30.76219,18.669723 0.0086,0.0032 -0.0086,-0.0032 z"
     id="path292"
     style="fill:#202020" />
  <path
     d="m 23.898914,24.171504 0.04843,-0.05722 -0.04843,0.05722 z"
     id="path294"
     style="fill:#202020" />
  <polygon
     points="450.12,179.294 450.858,190.419 439.355,184.214 438.617,173.081 "
     transform="matrix(1.0762546,0,0,1.0796275,-459.52775,-170.8049)"
     id="polygon298"
     style="fill:none" />
  <polygon
     points="450.074,177.886 450.087,177.815 449.946,177.954 "
     transform="matrix(1.0762546,0,0,1.0796275,-459.52775,-170.8049)"
     id="polygon300"
     style="fill:#202020" />
  <path
     d="m 24.292823,21.449764 -0.04951,0.129555 0.486467,-0.398383 c 0.0635,-0.341162 -0.48001,0.496629 -0.43696,0.268828 z"
     id="path302"
     style="fill:#202020" />
  <path
     d="m 24.258383,21.365553 c -0.01722,-0.164104 -0.179734,0.05722 -0.244309,0.129555 0.12915,-0.170581 0.122693,0.139272 0.244309,-0.129555 z"
     id="path304"
     style="fill:#202020" />
  <path
     d="m 17.001199,17.587936 0.03336,-0.0011 -0.03336,0.0011 z"
     id="path306"
     style="fill:#202020" />
  <path
     d="m 18.70491,19.254881 -0.0011,-0.0086 0.0011,0.0086 z"
     id="path310"
     style="fill:#202020" />
  <path
     d="m 23.898914,24.171504 0.04843,-0.05722 -0.04843,0.05722 z"
     id="path312"
     style="fill:#202020" />
  <polygon
     points="438.617,173.081 450.12,179.294 460.705,171.616 449.263,165.434 "
     transform="matrix(1.0762546,0,0,1.0796275,-459.52775,-170.8049)"
     id="polygon316"
     style="fill:none" />
  <path
     d="m 21.983181,10.21408 -0.01399,0.03131 0.01399,-0.03131 z"
     id="path324"
     style="fill:#202020" />
  <path
     d="m 19.699369,11.05403 0.0086,0.0032 -0.0086,-0.0032 z"
     id="path328"
     style="fill:#202020" />
  <path
     d="m 14.464466,18.366347 -0.0226,-0.07126 0.0226,0.07126 z"
     id="path330"
     style="fill:#202020" />
  <g
     id="g3035">
    <g
       transform="matrix(1.0000191,0,0,1,-2.3013903e-4,1.185725)"
       id="g4371">
      <polygon
         points="450.12,179.294 450.858,190.419 461.441,182.747 460.705,171.616 "
         transform="matrix(1.0762546,0,0,1.0796275,-459.52775,-170.8049)"
         id="polygon278"
         style="fill:#ffffff" />
      <polygon
         points="450.12,179.294 450.858,190.419 439.355,184.214 438.617,173.081 "
         transform="matrix(1.0762546,0,0,1.0796275,-459.52775,-170.8049)"
         id="polygon296"
         style="fill:#ffffff" />
      <polygon
         points="438.617,173.081 450.12,179.294 460.705,171.616 449.263,165.434 "
         transform="matrix(1.0762546,0,0,1.0796275,-459.52775,-170.8049)"
         id="polygon314"
         style="fill:#ffffff" />
    </g>
    <path
       d="m 24.966352,23.84203 c 0.693127,12.210011 0.65847,12.173887 0.65847,12.173887 M 12.849552,17.377855 c 0,0 0,0 12.077392,6.5652 11.199674,-8.145062 11.199674,-8.145062 11.199674,-8.145062 M 12.568683,17.202314 23.979009,8.9870366 36.302161,15.657561 37.109661,27.699614 25.699335,35.95 13.305965,29.314583 z"
       id="path4369"
       style="fill:none;stroke:#000000;stroke-width:1.10860753;stroke-linecap:butt;stroke-linejoin:miter;stroke-miterlimit:4;stroke-opacity:1;stroke-dasharray:none" />
  </g>
</svg>
